<?xml version="1.0" encoding="UTF-8"?>
<svg id="Capa_1" data-name="Capa 1" xmlns="http://www.w3.org/2000/svg" viewBox="0 0 210.4 196.24">
  <defs>
    <style>
      .cls-1 {
        fill: #fff;
      }
    </style>
  </defs>
  <path class="cls-1" d="M141.76,2.97c-3.35,3.9-6.28,7.41-9.31,10.84-6.21,7.05-12.77,13.58-19.41,20.17-14.26,14.14-29.39,27.46-45.85,39.16-1.04,.74-2.52,1.17-3.81,1.21-4.9,.15-9.8,.08-14.7,.1-.14,0-.28,.1-.68,.25,0,3.15,.05,6.39-.04,9.63-.02,.73-.33,1.79-.87,2.12-10.52,6.59-21.51,12.31-33.06,17.42v-15.12c4.71-2.41,9.63-4.46,14.4-7.01,18-9.6,34.76-21.3,50.71-34.01,8.94-7.12,17.65-14.37,25.9-22.21,7.73-7.35,15.04-15.26,22.22-23.2,1.27-1.41,2.46-1.79,4.26-1.37,3.22,.75,6.48,1.29,10.24,2.01Z"/>
  <path class="cls-1" d="M115.68,74.41c0,5.18,.06,10-.05,14.81-.02,.97-.39,2.26-1.07,2.83-10.54,8.72-21.15,17.35-31.75,25.99-.34,.28-.75,.47-1.5,.94,0-5.51-.04-10.68,.05-15.86,0-.53,.67-1.18,1.19-1.57,18.73-14.02,35.93-29.75,51.81-46.92,1.79-1.94,8.05-8.17,8.05-8.17,0,0,5.06,0,6.52,0,0-2.28-.13-4.57,.06-6.63,.06-.72-.06-1.85-.06-1.85,0,0,.97-1.14,1.22-1.48,4.03-5.58,8.5-10.64,12.55-16.2s7.82-11.85,11.91-17.53c.95-1.32,1.95-2.04,3.57-2.11,3.33-.15,6.65-.41,10.54-.66-1.37,2.22-2.46,3.95-3.52,5.71-14.68,24.3-31.76,46.77-51.41,67.27-.74,.78-2.09,1.34-3.17,1.37-4.88,.15-9.77,.06-14.95,.06Z"/>
  <path class="cls-1" d="M0,58.78v-12.46H13.9c0-2.74,.06-5.27-.02-7.79-.04-1.3,.28-2.13,1.52-2.78C33.47,26.3,50.32,14.97,66.51,2.59c.88-.67,2.61-.66,3.82-.4,5.11,1.09,4.98,1.17,5.14,6.35,.07,2.19-.72,3.49-2.39,4.84-17.83,14.37-36.83,26.95-57.08,37.62-5.19,2.73-10.55,5.14-16.01,7.78Z"/>
  <path class="cls-1" d="M201.98,1.34c-15.91,26.48-31.82,52.5-52.75,75.29-.18-.78-.33-1.44-.52-2.25h-13.68c3.17-3.49,6.08-6.66,8.95-9.87,3.76-4.2,7.59-8.14,11.13-12.49,12.43-15.27,23.39-31.82,33.55-48.75,1.51-2.51,3.1-3.45,5.95-2.83,2.33,.51,4.75,.59,7.37,.89Z"/>
  <path class="cls-1" d="M203.33,46.48c-2.83,4.67-5.36,9.01-8.04,13.23-2.75,4.32-5.6,8.58-8.53,12.78-.7,1.01-1.89,1.67-3.1,2.27-.17,4.63-3.71,7.57-6.37,10.83-3.7,4.55-7.44,9.99-11.21,14.49-5.26,6.3-10.56,11.63-15.83,17.92-.27,.33-.65,.57-1.31,1.14,0-6.15-.04-11.87,.06-17.6,.01-.71,.7-1.49,1.24-2.09,4.76-5.3,9.59-10.35,14.08-15.87,7.22-8.89,13.87-18.43,20.36-27.89,1.8-2.63,3.46-5.35,5.27-7.96,.38-.55,1.13-1.18,1.73-1.2,3.7-.11,7.41-.06,11.65-.06Z"/>
  <path class="cls-1" d="M142.81,4.91c0,5.49,.12,10.99-.1,16.47-.04,1.1-1.37,2.13-2.09,3.21-1.29,1.96-4.36,5.05-4.36,5.05,0,0-2.41-.37-4.94-.61-1.17-.11-3.39,.06-4.63,.07-6.56,.04-10.53,3.42-11.33,9.95-.29,2.36-.05,4.78-.05,7.37h5.29c-5.72,5.9-11.74,11.07-17.72,16.44-6.99,6.28-14,12.69-21.54,18.55v-6.93h-11.86c13.3-10.42,26.23-21.11,38.4-32.67,12.24-11.62,23.77-23.93,34.94-36.9Z"/>
  <path class="cls-1" d="M81.3,100.31c0-5.61-.06-10.57,.06-15.54,.02-.76,.72-1.7,1.37-2.21,13.71-10.67,26.62-22.23,38.85-34.57,.5-.51,1.54-1.51,1.54-1.51h16.27c-8.45,9.57-17.52,18.28-26.75,26.92-9.98,9.35-20.19,18.56-31.36,26.92Z"/>
  <path class="cls-1" d="M13.86,86.76v-12.29h-5.3l-.08-.38c.44-.26,.86-.55,1.31-.76,7.36-3.45,14.61-6.94,21.64-10.95,7.49-4.28,14.74-9.13,21.86-14.04,1.94-1.34,3.87-1.95,6.24-1.91,5.2,.1,10.41-.09,15.61-.15,.75,0,1.49,0,2.32,.26-19.53,15.87-40.49,29.34-63.62,40.23Z"/>
  <path class="cls-1" d="M47,46.46h5.84c-1,.75-1.49,1.16-2.01,1.51-14.32,9.62-29.23,18.21-45.02,25.2-1.71,.76-3.62,1.08-5.74,1.7v-14.26c6.98-3.12,14.02-6.25,20.7-9.85,9.89-5.32,19.24-11.39,28.35-17.56-1.92,2.62-2.33,4.1-2.44,7.95-.06,2.16,.43,4.66,.33,5.32Z"/>
  <path class="cls-1" d="M184.83,32.86c-2.03,4.23-2.52,8.69-1.98,13.5h5.9c-11.83,18.57-25.02,35.46-39.81,51.94,0-6.38-.03-12.1,.05-17.82,0-.67,.54-1.43,1.03-1.98,4.82-5.44,9.61-10.76,14.08-16.46,7.21-9.19,13.84-18.95,20.26-28.74,.11-.17,.34-.26,.52-.39,0,0-.05-.05-.05-.05Z"/>
  <path class="cls-1" d="M148.94,161.01c0-5.92-.03-11.59,.04-17.25,0-.6,.42-1.33,.86-1.78,11.76-11.91,22.6-24.62,32.75-37.92,.2,.12,.42,.2,.42,.28,.05,6.07,.1,12.13,.07,18.2,0,.62-.42,1.33-.84,1.85-10.1,12.77-20.92,24.88-32.55,36.27-.1,.1-.27,.13-.77,.35Z"/>
  <path class="cls-1" d="M148.94,140.31c0-6.26-.02-11.92,.03-17.58,0-.55,.08-.94,.47-1.34,4.78-5.03,9.74-10.07,14.22-15.35,6.51-7.69,12.6-16.02,18.61-24.13,.13-.17,.32-.29,.71-.63,.07,.85,.16,1.49,.17,2.14,.01,4.2-.16,8.41,.06,12.6,.16,3.13-.61,5.68-2.68,8.06-9.88,11.38-19.66,22.84-29.49,34.26-.49,.57-1.1,1.05-2.1,1.99Z"/>
  <path class="cls-1" d="M14.01,34.27c.37-5.77,1.34-11.16,3.72-16.22,.36-.77,1.15-1.44,1.9-1.91,7.89-4.94,15.81-9.83,23.73-14.72,.65-.4,1.36-.91,2.08-.97,6.5-.52,12.98-.29,19.61,.69-7.01,6.98-43.2,30.5-51.02,33.13Z"/>
  <path class="cls-1" d="M126.15,.51c-2.9,5.44-37.03,38.16-45,43.05,.26-4.6,.57-8.89,.72-13.18,.1-2.87,1.49-4.77,3.59-6.65,3.76-3.35,7.71-6.42,11.42-9.83,4.13-3.81,8-7.97,12.16-11.74,.85-.77,2.09-1.53,3.18-1.57,4.62-.17,9.24-.07,13.94-.07Z"/>
  <path class="cls-1" d="M81.3,137.73c0-5.45-.03-10.56,.04-15.66,0-.5,.46-1.14,.91-1.47,6.01-4.28,11.29-8.74,16.9-13.28,5.31-4.3,10.54-8.96,15.85-13.25,.1-.08,.28-.06,.67-.12,0,5.45,.02,10.86-.04,16.26,0,.52-.46,1.17-.9,1.52-10.65,8.44-21.32,16.84-31.99,25.24-.3,.23-.67,.37-1.44,.77Z"/>
  <path class="cls-1" d="M115.68,113.63c0,5.61,.02,10.88-.03,16.15,0,.54-.31,1.25-.71,1.59-10.5,9-21.48,17.36-33.4,25.01-.1-.82-.22-1.38-.23-1.94-.02-4.2-.07-8.4,.04-12.59,.02-.86,.46-2,1.11-2.51,5.64-4.03,11.12-8.33,16.7-12.69,5.18-4.04,10.39-8.5,15.58-12.54,.17-.13,.39-.2,.95-.48Z"/>
  <path class="cls-1" d="M48,88.76c0,4.54,.03,9.35-.04,14.15,0,.55-.47,1.36-.94,1.61-5.35,2.7-10.71,5.39-16.07,8.07s-10.9,5.44-16.35,8.15c-.12,.06-.3,0-.69,0,0-4.64-.03-9.28,.04-13.91,0-.48,.45-1.17,.88-1.39,5.16-2.25,10.26-4.62,15.39-7.2,5.91-2.97,11.8-6.49,17.79-9.5Z"/>
  <path class="cls-1" d="M48,106.26c0,4.45,.04,9.69-.04,14.42-.01,.62-.45,1.53-.96,1.81-5.26,2.9-10.58,5.65-16.04,8.23s-11.19,5.06-17.05,7.31c0-4.93-.02-9.62,.04-14.3,0-.39,.5-.94,.9-1.13,4.77-2.19,10.03-4.81,15.08-7.35,6.08-3.06,11.99-6.09,18.07-8.99Z"/>
  <path class="cls-1" d="M47.99,124.4c0,4.86,.03,9.72-.05,14.58,0,.45-.57,1.06-1.03,1.3-10.43,5.47-21.1,10.39-32.3,14.13-.14,.05-.3,0-.71,0,0-4.54-.03-9.09,.05-13.64,0-.44,.57-1.06,1.02-1.28,5.32-2.5,10.02-4.16,15.35-6.64s11.55-5.92,17.01-8.46c.12-.06,.29,0,.66,0Z"/>
  <path class="cls-1" d="M81.3,165.22c0-2.07-.1-3.77,.05-5.46,.06-.65,.56-1.43,1.09-1.83,5.49-4.11,10.52-7.13,16.02-11.23,5.14-3.83,10.75-8.73,15.89-12.56,.3-.22,.63-.4,1.3-.82,0,5.77,.03,11.24-.06,16.71,0,.53-.71,1.16-1.23,1.56-5.55,4.25-11.11,8.48-16.7,12.68-.59,.44-1.37,.89-2.07,.9-4.65,.08-9.31,.04-14.31,.04Z"/>
  <path class="cls-1" d="M148.39,165.21c5.48-6.04,11.06-11.6,16.37-17.45,6.19-6.82,12.1-13.91,18.2-20.63,.02,.11,.17,.58,.17,1.05,.02,5.36,.06,10.73-.03,16.09-.01,.92-.37,2.02-.95,2.71-5,5.85-10.07,11.63-15.16,17.39-.37,.42-1.04,.8-1.57,.8-5.43,.06-10.86,.04-17.03,.04Z"/>
  <path class="cls-1" d="M13.9,165.2c0-2.65-.06-5.05,.05-7.44,.02-.53,.54-1.28,1.03-1.5,4.88-2.15,9.9-3.99,14.79-6.12,5.83-2.54,11.56-5.06,17.37-7.9,.2-.09,.45-.05,.86-.1,0,4.86,.04,9.67-.05,14.47,0,.49-.67,1.17-1.2,1.41-4.85,2.25-9.73,4.43-14.62,6.59-.69,.31-1.48,.54-2.23,.55-5.21,.05-10.42,.02-15.99,.02Z"/>
  <path class="cls-1" d="M210.21,46.7c0,3.98,0,7.86,0,11.74,0,.31,0,.66-.15,.91-2.87,4.86-5.74,9.72-8.67,14.53-.21,.34-.93,.49-1.42,.5-3.95,.04-7.91,.02-12.28,.02,1.29-1.99,2.42-3.69,3.52-5.42,4.05-6.41,8.14-12.81,12.12-19.27,2.19-3.55,2.12-3.59,6.89-3.01Z"/>
  <path class="cls-1" d="M184.88,32.9c2.66-4.52,5.26-9.09,8.01-13.56,3.29-5.35,6.75-10.59,10.02-15.94,.82-1.34,1.67-1.5,3.04-1.16,4.47,1.13,4.59,1.1,4.41,5.73-.06,1.61-.55,3.36-1.35,4.75-2.85,4.97-5.95,9.79-8.87,14.72-.7,1.19-1.4,1.83-2.89,1.68-4.63-.47-8.91,.37-12.41,3.73,0,0,.05,.05,.05,.05Z"/>
  <path class="cls-1" d="M111.97,176.57c3.27,.19,6.41,.04,9.41,.61,4.7,.9,7.25,4.79,7.09,9.98-.13,4.07-3.49,7.88-7.8,8.46-2.58,.34-5.23,.2-7.85,.28-1.01,.03-.84-.7-.84-1.29,0-5.06,0-10.12,0-15.18,0-.85,0-1.69,0-2.86Zm1.58,17.76c2.23,0,4.33,.15,6.4-.03,3.35-.29,6.14-2.87,6.81-6.02,.79-3.7-.67-7.19-3.77-8.96-3-1.72-6.23-1.08-9.44-1.11v16.12Z"/>
  <path class="cls-1" d="M149.18,34.55c.38-15.57,7.74-29.29,23.71-32.69-1.42,4.04-19.75,29.31-23.71,32.69Z"/>
  <path class="cls-1" d="M178.01,176.41c5.5,.14,9.57,4.52,9.42,10.11-.15,5.58-4.51,9.87-9.88,9.72-5.4-.15-9.56-4.55-9.44-10,.12-5.7,4.42-9.97,9.9-9.82Zm7.79,9.87c0-4.75-3.5-8.48-7.99-8.52-4.54-.04-8.13,3.75-8.1,8.57,.03,4.76,3.71,8.61,8.18,8.54,4.52-.07,7.92-3.76,7.91-8.58Z"/>
  <path class="cls-1" d="M26.49,178.82c-.34,.42-.61,.74-.94,1.14-1.96-1.6-4.15-2.35-6.64-2.05-2.24,.28-3.62,1.71-3.61,3.68,0,1.3,.63,2.22,1.75,2.7,1.17,.5,2.42,.81,3.64,1.2,1.13,.36,2.3,.63,3.39,1.08,1.82,.74,2.94,2.03,2.97,4.12,.03,2.2-.98,3.73-2.9,4.69-3.32,1.66-8.19,.63-11.12-2.39,.28-.33,.57-.67,.93-1.07,1.77,1.59,3.68,2.79,6.03,2.76,1.24-.01,2.55-.27,3.71-.72,1.3-.51,1.86-1.74,1.84-3.14-.02-1.45-.85-2.4-2.16-2.9-.93-.36-1.9-.6-2.86-.88-1.05-.3-2.14-.49-3.16-.87-2.6-.96-3.76-2.58-3.63-4.86,.13-2.27,1.78-4.16,4.34-4.66,3.04-.59,5.86-.03,8.42,2.15Z"/>
  <path class="cls-1" d="M77.01,176.82h1.33c0,3.54,0,7.01,0,10.49,0,.71,.03,1.43,.16,2.13,.81,4.4,4.81,6.57,8.97,4.85,2.53-1.05,3.46-3.19,3.51-5.73,.07-3.86,.02-7.72,.02-11.72,.53-.03,.97-.05,1.58-.08,0,2.51,.02,4.89,0,7.26-.03,1.9,.02,3.82-.21,5.71-.49,3.99-3.35,6.39-7.45,6.46-4.22,.07-7.48-2.2-7.82-6.17-.37-4.34-.08-8.74-.08-13.19Z"/>
  <path class="cls-1" d="M53.49,30.4c6.92-5.23,14.85-11.18,21.91-16.52,0,5.36,.14,10.36-.07,15.35-.03,.71,.12,3.12,.12,3.12,0,0-6.41-2.95-10.86-3.17s-8.44,.32-11.1,1.21Z"/>
  <path class="cls-1" d="M58.72,176.82c.29,.99,0,1.36-.93,1.34-1.8-.04-3.6-.01-5.6-.01v1.81c0,4.91-.02,9.83,.02,14.74,0,1.18-.45,1.41-1.59,1.02v-17.51h-6.49c-.05-.51-.08-.89-.13-1.37h14.72Z"/>
  <path class="cls-1" d="M83.57,23.52c2.03-10.79,11.72-20.52,23.43-21.48-7.69,7.05-15.37,14.09-23.43,21.48Z"/>
  <path class="cls-1" d="M168.79,165.08c4.78-5.44,9.32-10.6,14.13-16.07v16.07h-14.13Z"/>
  <path class="cls-1" d="M115.49,165.06h-15.76c5.44-4.12,10.49-7.94,15.76-11.92v11.92Z"/>
  <path class="cls-1" d="M200.93,29.28c3.02-5,5.96-9.85,8.89-14.7,.14,.04,.27,.08,.41,.13V31.74c-3.08-.82-6.02-1.59-9.3-2.46Z"/>
  <path class="cls-1" d="M147.71,176.8h1.28v18.99c-.36,.03-.76,.06-1.28,.11v-19.09Z"/>
  <path class="cls-1" d="M39.82,1.8c-6.31,3.92-12.62,7.83-18.93,11.75-.11-.18-.22-.35-.33-.53C25.21,6.46,31.77,2.97,39.82,1.8Z"/>
  <path class="cls-1" d="M210.06,74.32h-6.81c2.25-3.76,4.37-7.29,6.81-11.35v11.35Z"/>
  <path class="cls-1" d="M36.5,164.72c3.73-1.71,7.45-3.41,11.36-5.2v5.51h-11.27c-.03-.1-.06-.21-.09-.31Z"/>
  <path class="cls-1" d="M137.94,30.34c1.65-1.91,3.05-3.54,4.7-5.44v6.94c-1.52-.48-2.98-.95-4.7-1.49Z"/>
</svg>